<svg xmlns="http://www.w3.org/2000/svg" viewBox="0 0 1200 630">
  <defs>
    <linearGradient id="bgGrad" x1="0%" y1="0%" x2="100%" y2="100%">
      <stop offset="0%" style="stop-color:#1e1b4b"/>
      <stop offset="100%" style="stop-color:#09090b"/>
    </linearGradient>
    <linearGradient id="logoGrad" x1="0%" y1="0%" x2="100%" y2="100%">
      <stop offset="0%" style="stop-color:#6366f1"/>
      <stop offset="100%" style="stop-color:#a855f7"/>
    </linearGradient>
  </defs>

  <!-- Background -->
  <rect width="1200" height="630" fill="url(#bgGrad)"/>

  <!-- Grid pattern -->
  <g stroke="rgba(99,102,241,0.15)" stroke-width="1" fill="none">
    <line x1="0" y1="126" x2="1200" y2="126"/>
    <line x1="0" y1="252" x2="1200" y2="252"/>
    <line x1="0" y1="378" x2="1200" y2="378"/>
    <line x1="0" y1="504" x2="1200" y2="504"/>
    <line x1="240" y1="0" x2="240" y2="630"/>
    <line x1="480" y1="0" x2="480" y2="630"/>
    <line x1="720" y1="0" x2="720" y2="630"/>
    <line x1="960" y1="0" x2="960" y2="630"/>
  </g>

  <!-- Logo icon with purple gradient background -->
  <g transform="translate(80, 165)">
    <rect width="300" height="300" rx="56" fill="url(#logoGrad)"/>
    <g fill="#ffffff">
      <circle cx="150" cy="75" r="21"/>
      <circle cx="89" cy="199" r="21"/>
      <circle cx="211" cy="199" r="21"/>
      <circle cx="150" cy="145" r="16"/>
    </g>
    <g stroke="#ffffff" stroke-width="7" stroke-linecap="round" fill="none">
      <line x1="150" y1="96" x2="101" y2="180"/>
      <line x1="150" y1="96" x2="199" y2="180"/>
      <line x1="110" y1="199" x2="190" y2="199"/>
      <line x1="150" y1="145" x2="150" y2="96"/>
    </g>
  </g>

  <!-- Text -->
  <text x="420" y="300" font-family="Inter, system-ui, sans-serif" font-size="72" font-weight="700" fill="#e4e4e7">ArchiGram.ai</text>
  <text x="420" y="380" font-family="Inter, system-ui, sans-serif" font-size="32" font-weight="400" fill="#a1a1aa">AI Architecture Diagramming &amp; System Design</text>

  <!-- Tagline -->
  <text x="420" y="460" font-family="Inter, system-ui, sans-serif" font-size="24" font-weight="500" fill="url(#logoGrad)">Architect Systems at the Speed of Thought</text>

  <!-- Accent line -->
  <rect x="420" y="490" width="200" height="4" rx="2" fill="url(#logoGrad)"/>
</svg>
