<svg xmlns="http://www.w3.org/2000/svg" viewBox="0 0 1200 630">
  <defs>
    <linearGradient id="grad" x1="0%" y1="0%" x2="100%" y2="100%">
      <stop offset="0%" style="stop-color:#6366f1"/>
      <stop offset="100%" style="stop-color:#a855f7"/>
    </linearGradient>
    <linearGradient id="textGrad" x1="0%" y1="0%" x2="100%" y2="0%">
      <stop offset="0%" style="stop-color:#e4e4e7"/>
      <stop offset="100%" style="stop-color:#a1a1aa"/>
    </linearGradient>
  </defs>

  <!-- Background -->
  <rect width="1200" height="630" fill="#09090b"/>

  <!-- Grid pattern -->
  <g stroke="rgba(99,102,241,0.1)" stroke-width="1" fill="none">
    <line x1="0" y1="126" x2="1200" y2="126"/>
    <line x1="0" y1="252" x2="1200" y2="252"/>
    <line x1="0" y1="378" x2="1200" y2="378"/>
    <line x1="0" y1="504" x2="1200" y2="504"/>
    <line x1="240" y1="0" x2="240" y2="630"/>
    <line x1="480" y1="0" x2="480" y2="630"/>
    <line x1="720" y1="0" x2="720" y2="630"/>
    <line x1="960" y1="0" x2="960" y2="630"/>
  </g>

  <!-- Logo icon -->
  <g transform="translate(100, 180)">
    <g fill="url(#grad)">
      <circle cx="100" cy="40" r="20"/>
      <circle cx="50" cy="160" r="20"/>
      <circle cx="150" cy="160" r="20"/>
      <circle cx="100" cy="110" r="14"/>
    </g>
    <g stroke="url(#grad)" stroke-width="5" stroke-linecap="round" fill="none">
      <line x1="100" y1="60" x2="62" y2="140"/>
      <line x1="100" y1="60" x2="138" y2="140"/>
      <line x1="70" y1="160" x2="130" y2="160"/>
      <line x1="100" y1="110" x2="100" y2="60"/>
    </g>
  </g>

  <!-- Text -->
  <text x="320" y="300" font-family="Inter, system-ui, sans-serif" font-size="72" font-weight="700" fill="#e4e4e7">ArchiGram.ai</text>
  <text x="320" y="380" font-family="Inter, system-ui, sans-serif" font-size="32" font-weight="400" fill="#a1a1aa">AI Architecture Diagramming &amp; System Design</text>

  <!-- Tagline -->
  <text x="320" y="460" font-family="Inter, system-ui, sans-serif" font-size="24" font-weight="500" fill="url(#grad)">Architect Systems at the Speed of Thought</text>

  <!-- Accent line -->
  <rect x="320" y="490" width="200" height="4" rx="2" fill="url(#grad)"/>
</svg>
